<svg width="32" height="30" viewBox="0 0 32 30" fill="none" xmlns="http://www.w3.org/2000/svg">
<path d="M28.7778 16.1111V15C28.7778 7.32942 22.5594 1.11108 14.8889 1.11108C7.21778 1.11108 1 7.32942 1 15C1 22.6705 7.21778 28.8889 14.8889 28.8889H15.4444" stroke="#002F6C" stroke-width="2" stroke-miterlimit="10" stroke-linejoin="round"/>
<path d="M26.5555 13.8889L28.7778 16.1111L31 13.8889" stroke="#002F6C" stroke-width="2" stroke-miterlimit="10" stroke-linecap="round" stroke-linejoin="round"/>
<path d="M19.3333 21.0317C19.3333 19.8461 20.3261 18.8889 21.5555 18.8889C22.785 18.8889 23.7778 19.8461 23.7778 21.0317C23.7778 21.3672 23.6966 21.6889 23.5555 21.9672C23.5261 22.0172 23.5033 22.0678 23.4744 22.1178H23.4722L19.3333 28.8889H23.7778" stroke="#002F6C" stroke-width="2" stroke-miterlimit="10" stroke-linecap="round" stroke-linejoin="round"/>
<path d="M27.6666 18.8889L25.4444 26.1111H29.8888" stroke="#002F6C" stroke-width="2" stroke-miterlimit="10" stroke-linecap="round" stroke-linejoin="round"/>
<path d="M29.8889 23.3334V28.8889" stroke="#002F6C" stroke-width="2" stroke-miterlimit="10" stroke-linecap="round" stroke-linejoin="round"/>
<path d="M14.8889 2.77771V4.99993" stroke="#002F6C" stroke-width="2" stroke-miterlimit="10" stroke-linejoin="round"/>
<path d="M14.8889 25V27.2222" stroke="#002F6C" stroke-width="2" stroke-miterlimit="10" stroke-linejoin="round"/>
<path d="M8.77777 4.41492L9.88888 6.33992" stroke="#002F6C" stroke-width="2" stroke-miterlimit="10" stroke-linejoin="round"/>
<path d="M4.30383 8.88892L6.22883 10" stroke="#002F6C" stroke-width="2" stroke-miterlimit="10" stroke-linejoin="round"/>
<path d="M2.66669 15H4.88947" stroke="#002F6C" stroke-width="2" stroke-miterlimit="10" stroke-linejoin="round"/>
<path d="M4.30438 21.1111L6.22938 20" stroke="#002F6C" stroke-width="2" stroke-miterlimit="10" stroke-linejoin="round"/>
<path d="M23.5495 10L25.4739 8.88892" stroke="#002F6C" stroke-width="2" stroke-miterlimit="10" stroke-linejoin="round"/>
<path d="M8.77838 25.585L9.88949 23.66" stroke="#002F6C" stroke-width="2" stroke-miterlimit="10" stroke-linejoin="round"/>
<path d="M19.8895 6.33992L21 4.41492" stroke="#002F6C" stroke-width="2" stroke-miterlimit="10" stroke-linejoin="round"/>
<path d="M14.8889 16.1111C15.5025 16.1111 16 15.6137 16 15C16 14.3864 15.5025 13.8889 14.8889 13.8889C14.2752 13.8889 13.7778 14.3864 13.7778 15C13.7778 15.6137 14.2752 16.1111 14.8889 16.1111Z" fill="#002F6C"/>
<path d="M14.8889 6.11108V15L11 21.6666" stroke="#002F6C" stroke-width="2" stroke-miterlimit="10" stroke-linejoin="round"/>
</svg>
