<svg width="24" height="30" viewBox="0 0 24 30" fill="none" xmlns="http://www.w3.org/2000/svg">
<path d="M6 4C6 4.55228 5.55228 5 5 5C4.44772 5 4 4.55228 4 4C4 3.44772 4.44772 3 5 3C5.55228 3 6 3.44772 6 4Z" fill="#002F6C"/>
<path d="M8 5C8.55229 5 9 4.55228 9 4C9 3.44772 8.55229 3 8 3C7.44772 3 7 3.44772 7 4C7 4.55228 7.44772 5 8 5Z" fill="#002F6C"/>
<path fill-rule="evenodd" clip-rule="evenodd" d="M12 10C7.58172 10 4 13.5817 4 18C4 22.4183 7.58172 26 12 26C16.4183 26 20 22.4183 20 18C20 13.5817 16.4183 10 12 10ZM6 18C6 14.6863 8.68629 12 12 12C15.3137 12 18 14.6863 18 18C18 21.3137 15.3137 24 12 24C8.68629 24 6 21.3137 6 18Z" fill="#002F6C"/>
<path fill-rule="evenodd" clip-rule="evenodd" d="M0 3C0 1.34315 1.34315 0 3 0H21C22.6569 0 24 1.34315 24 3V27C24 28.6569 22.6569 30 21 30H3C1.34314 30 0 28.6569 0 27V3ZM3 2C2.44772 2 2 2.44772 2 3V6H22V3C22 2.44771 21.5523 2 21 2H3ZM2 27V8H22V27C22 27.5523 21.5523 28 21 28H3C2.44772 28 2 27.5523 2 27Z" fill="#002F6C"/>
</svg>
