<svg width="24" height="24" viewBox="0 0 24 24" fill="none" xmlns="http://www.w3.org/2000/svg">
<circle cx="12" cy="12" r="9" fill="white"/>
<path d="M9.93272 12.1896C9.969 12.2251 9.99773 12.2675 10.0172 12.3144C10.0366 12.3612 10.0464 12.4116 10.0459 12.4623C10.0461 12.5127 10.0363 12.5627 10.0171 12.6094C9.99795 12.656 9.96976 12.6984 9.93416 12.7341C9.89856 12.7699 9.85626 12.7982 9.80968 12.8176C9.7631 12.8369 9.71316 12.8469 9.66272 12.8469H8.12863C8.02676 12.8465 7.92915 12.8059 7.85712 12.7338C7.78508 12.6618 7.74445 12.5642 7.74409 12.4623V9.56458C7.74375 9.51386 7.75359 9.46359 7.77303 9.41674C7.79247 9.36989 7.82112 9.32743 7.85727 9.29185C7.91094 9.23801 7.97942 9.20135 8.05399 9.18654C8.12855 9.17173 8.20584 9.17943 8.27602 9.20867C8.34619 9.23791 8.40609 9.28737 8.44807 9.35074C8.49006 9.41412 8.51225 9.48856 8.51181 9.56458V12.0778H9.66272C9.71292 12.0774 9.76269 12.0871 9.80907 12.1063C9.85544 12.1255 9.89749 12.1538 9.93272 12.1896Z" fill="#02B801"/>
<path d="M10.8777 9.1814H10.71C10.5443 9.1814 10.41 9.31571 10.41 9.4814V12.5455C10.41 12.7112 10.5443 12.8455 10.71 12.8455H10.8777C11.0434 12.8455 11.1777 12.7112 11.1777 12.5455V9.4814C11.1777 9.31571 11.0434 9.1814 10.8777 9.1814Z" fill="#02B801"/>
<path d="M14.7436 9.56463V12.446C14.7437 12.5496 14.7035 12.6493 14.6315 12.7238C14.5595 12.7983 14.4613 12.842 14.3577 12.8455C14.2606 12.844 14.1677 12.806 14.0973 12.7392C14.0836 12.7283 13.5682 12.0574 13.1305 11.4928C12.8032 11.0714 12.5195 10.7033 12.5195 10.7033V12.461C12.5198 12.5355 12.4983 12.6085 12.4578 12.6709C12.4172 12.7334 12.3593 12.7827 12.2912 12.8128C12.223 12.8429 12.1476 12.8525 12.0741 12.8404C12.0005 12.8283 11.9322 12.795 11.8773 12.7446C11.8377 12.7088 11.8061 12.665 11.7844 12.6161C11.7628 12.5673 11.7517 12.5144 11.7518 12.461V9.58099C11.7506 9.47975 11.7882 9.38187 11.8569 9.30754C11.9257 9.2332 12.0203 9.18807 12.1214 9.18145C12.1785 9.18051 12.2352 9.19226 12.2873 9.21584C12.3394 9.23941 12.3857 9.27424 12.4227 9.31781C12.4391 9.3369 13.2314 10.3678 13.6773 10.9542C13.8545 11.1833 13.9773 11.3442 13.9773 11.3442V9.57145C13.978 9.47004 14.0186 9.37299 14.0903 9.30129C14.162 9.22958 14.259 9.18898 14.3605 9.18827C14.4609 9.18825 14.5574 9.22768 14.629 9.29808C14.7007 9.36847 14.7418 9.46419 14.7436 9.56463Z" fill="#02B801"/>
<path d="M16.0909 9.95453V10.6363H17.2405C17.3421 10.6363 17.4395 10.6767 17.5114 10.7486C17.5833 10.8204 17.6236 10.9179 17.6236 11.0195C17.6236 11.1212 17.5833 11.2186 17.5114 11.2905C17.4395 11.3623 17.3421 11.4027 17.2405 11.4027H16.0909V12.0845H17.2405C17.2928 12.0814 17.3452 12.089 17.3945 12.1069C17.4438 12.1248 17.4889 12.1525 17.527 12.1885C17.5652 12.2245 17.5956 12.2678 17.6164 12.316C17.6372 12.3641 17.6479 12.416 17.6479 12.4684C17.6479 12.5208 17.6372 12.5727 17.6164 12.6208C17.5956 12.669 17.5652 12.7123 17.527 12.7483C17.4889 12.7842 17.4438 12.812 17.3945 12.8299C17.3452 12.8478 17.2928 12.8554 17.2405 12.8523H15.7023C15.6005 12.8519 15.5031 12.8112 15.4312 12.7391C15.3594 12.6671 15.3191 12.5695 15.3191 12.4677V9.56453C15.3195 9.46301 15.3599 9.36576 15.4317 9.29397C15.5035 9.22219 15.6008 9.18171 15.7023 9.18135H17.2364C17.2887 9.17823 17.3411 9.18584 17.3904 9.20372C17.4397 9.2216 17.4848 9.24937 17.523 9.28532C17.5611 9.32127 17.5915 9.36464 17.6123 9.41278C17.6331 9.46091 17.6438 9.51278 17.6438 9.56521C17.6438 9.61764 17.6331 9.66951 17.6123 9.71764C17.5915 9.76577 17.5611 9.80915 17.523 9.8451C17.4848 9.88105 17.4397 9.90882 17.3904 9.9267C17.3411 9.94458 17.2887 9.95219 17.2364 9.94907L16.0909 9.95453Z" fill="#02B801"/>
<path d="M20.7273 0H3.27273C2.40475 0 1.57232 0.344804 0.95856 0.95856C0.344804 1.57232 0 2.40475 0 3.27273L0 20.7273C0 21.5953 0.344804 22.4277 0.95856 23.0414C1.57232 23.6552 2.40475 24 3.27273 24H20.7273C21.5953 24 22.4277 23.6552 23.0414 23.0414C23.6552 22.4277 24 21.5953 24 20.7273V3.27273C24 2.40475 23.6552 1.57232 23.0414 0.95856C22.4277 0.344804 21.5953 0 20.7273 0ZM19.5 11.1818C19.4893 11.3342 19.4698 11.4858 19.4414 11.6359C19.3465 12.2106 19.1522 12.7643 18.8673 13.2723C18.7309 13.515 18.075 14.4368 17.8745 14.6795C16.7659 16.0145 14.9086 17.5555 11.805 19.0541C11.7395 19.0857 11.6668 19.0993 11.5943 19.0935C11.5218 19.0877 11.4522 19.0626 11.3926 19.021C11.333 18.9793 11.2856 18.9225 11.2553 18.8564C11.2249 18.7903 11.2128 18.7174 11.22 18.645L11.3768 17.2364C11.3887 17.1286 11.3573 17.0205 11.2895 16.9359C11.2218 16.8513 11.1232 16.797 11.0155 16.785C9.98295 16.6817 8.97718 16.3949 8.04545 15.9382C5.91818 14.8868 4.5 13.0091 4.5 10.8695C4.5 7.575 7.85727 4.90909 12 4.90909C14.0809 4.90909 15.9627 5.59091 17.3182 6.67227C18.5877 7.68818 19.4005 9.06682 19.4877 10.5968C19.5023 10.7915 19.5064 10.9867 19.5 11.1818Z" fill="#02B801"/>
</svg>
