<svg width="24" height="30" viewBox="0 0 24 30" fill="none" xmlns="http://www.w3.org/2000/svg">
<path d="M23.0367 16.915C23.0366 15.5449 21.9218 14.4302 20.5517 14.4302H20.5035C20.1625 14.4302 19.8375 14.5007 19.5425 14.6278C19.3787 14.3148 19.15 14.0409 18.8746 13.8239V2.90735C18.8745 1.30425 17.5703 0 15.9671 0H5.86384C4.26075 0 2.95655 1.30425 2.95655 2.90735V17.2631C2.76517 17.3741 2.58458 17.506 2.41822 17.6576L0.963196 18.9829L2.95655 21.0673V25.7921C2.95655 27.3952 4.26075 28.6994 5.86384 28.6994H8.42647V29.9999H20.9978L23.0368 24.8351L23.0367 16.915ZM5.86384 1.75791H15.9672C16.6009 1.75791 17.1166 2.27357 17.1166 2.90735V13.3015C16.8181 13.3281 16.5347 13.4078 16.2757 13.5309C15.7474 12.5747 14.4824 12.0467 13.4001 12.4027C13.4001 11.6192 13.4002 10.8761 13.4004 10.2612C13.4284 8.92474 12.2509 7.74759 10.9146 7.77519H10.8663C10.215 7.77519 9.60257 8.02885 9.142 8.48948C8.68143 8.95012 8.42782 9.56257 8.42788 10.214L8.42911 19.3603L6.67817 17.7001C6.14031 17.1902 5.44898 16.8914 4.71435 16.8474V2.90735C4.7144 2.27357 5.23006 1.75791 5.86384 1.75791ZM5.86384 26.9415C5.23012 26.9415 4.71446 26.4258 4.71446 25.7921V22.9055L8.42653 26.7872V26.9415H5.86384ZM9.2487 22.5547L10.1874 21.833L10.1858 10.2138C10.1858 10.032 10.2566 9.86107 10.3851 9.7325C10.5136 9.60394 10.6845 9.53316 10.8663 9.53316H10.9146C11.1091 9.53316 11.292 9.60886 11.4295 9.74633C11.5669 9.88374 11.6426 10.0664 11.6425 10.2608C11.6422 11.4822 11.642 13.2095 11.6419 14.7536L11.6418 18.3371H13.3997L13.3998 14.7652C13.4571 13.8104 14.8154 13.8219 14.8542 14.7785V18.3371H16.6121V15.7768C16.6522 14.8118 18.0268 14.8126 18.0665 15.7768V18.337L19.8244 18.3372L19.8245 16.867C19.8245 16.4927 20.1291 16.1881 20.5034 16.1881H20.5516C20.9525 16.1881 21.2787 16.5142 21.2787 16.9151L21.2788 24.5008L19.8017 28.2421H10.1844V26.0821L3.47853 19.0697L3.602 18.9572C4.1108 18.4767 4.96989 18.485 5.46872 18.9758L9.2487 22.5547Z" fill="#002F6C"/>
</svg>
